# This file uses centimeters as units for non-parametric coordinates.

mtllib ventana.mtl
g default
v -0.044143 -1.399410 0.003580
v 0.044143 -1.399410 0.003580
v -0.044143 1.399410 0.003580
v 0.044143 1.399410 0.003580
v -0.044143 1.399410 -1.682519
v 0.044143 1.399410 -1.682519
v -0.044143 -1.399410 -1.682519
v 0.044143 -1.399410 -1.682519
vt 0.957164 -0.002371
vt 0.066094 0.819111
vt -0.002414 0.901775
vt 0.024991 1.002628
vt 0.005430 0.758012
vt 0.066094 0.970283
vt 0.036634 0.717417
vt 0.068547 0.821130
vt 0.036634 0.728423
vt 0.047641 0.728423
vt 0.971188 -0.011581
vt 0.971188 1.002628
vt 0.032734 -0.002371
vt 0.032734 0.998566
vt 0.047641 0.717417
vt 0.024991 -0.011581
vt 0.005430 0.821130
vt -0.002414 0.819111
vt 0.068547 0.758012
vt -0.002414 0.970283
vt 0.066094 0.887619
vt 0.066094 0.901775
vt -0.002414 0.887619
vt 0.957164 0.998566
vn 0.000000 0.000000 1.000000
vn 0.000000 0.000000 1.000000
vn 0.000000 0.000000 1.000000
vn 0.000000 0.000000 1.000000
vn 0.000000 1.000000 0.000000
vn 0.000000 1.000000 0.000000
vn 0.000000 1.000000 0.000000
vn 0.000000 1.000000 0.000000
vn 0.000000 0.000000 -1.000000
vn 0.000000 0.000000 -1.000000
vn 0.000000 0.000000 -1.000000
vn 0.000000 0.000000 -1.000000
vn 0.000000 -1.000000 0.000000
vn 0.000000 -1.000000 0.000000
vn 0.000000 -1.000000 0.000000
vn 0.000000 -1.000000 0.000000
vn 1.000000 0.000000 0.000000
vn 1.000000 0.000000 0.000000
vn 1.000000 0.000000 0.000000
vn 1.000000 0.000000 0.000000
vn -1.000000 0.000000 0.000000
vn -1.000000 0.000000 0.000000
vn -1.000000 0.000000 0.000000
vn -1.000000 0.000000 0.000000
s off
g pCube15
usemtl pasted__pasted__pasted__pasted__pasted__pasted__pasted__pasted__pasted__pasted__phong1SG16
f 1/18/1 2/2/2 4/21/3 3/23/4
f 3/3/5 4/22/6 6/6/7 5/20/8
f 5/5/9 6/19/10 8/8/11 7/17/12
f 7/7/13 8/15/14 2/10/15 1/9/16
f 2/16/17 8/11/18 6/12/19 4/4/20
f 7/13/21 1/1/22 3/24/23 5/14/24
